<svg id="Capa_1" enable-background="new 0 0 512 512" height="512" viewBox="0 0 512 512" width="512" xmlns="http://www.w3.org/2000/svg"><path d="m434.625 89.46c-20.668 0-40.099 8.048-54.713 22.663-5.858 5.858-5.858 15.355 0 21.213 5.857 5.858 15.355 5.858 21.213 0 8.948-8.948 20.846-13.876 33.5-13.876 26.123 0 47.375 21.252 47.375 47.375s-21.252 47.375-47.375 47.375h-295.439c-8.284 0-15 6.716-15 15s6.716 15 15 15h295.439c42.665 0 77.375-34.71 77.375-77.375s-34.71-77.375-77.375-77.375z"/><path d="m230.487 282.256h-215.487c-8.284 0-15 6.716-15 15s6.716 15 15 15h215.487c26.123 0 47.376 21.253 47.376 47.375 0 26.123-21.253 47.376-47.376 47.376-12.654 0-24.552-4.928-33.498-13.876-5.859-5.859-15.357-5.858-21.214-.001s-5.858 15.355-.001 21.213c14.614 14.615 34.045 22.664 54.713 22.664 42.665 0 77.376-34.71 77.376-77.376 0-42.664-34.711-77.375-77.376-77.375z"/><path d="m418.006 282.256h-74.804c-8.284 0-15 6.716-15 15s6.716 15 15 15h74.804c14.862 0 26.953 12.091 26.953 26.953s-12.091 26.953-26.953 26.953c-7.198 0-13.968-2.804-19.06-7.895-5.857-5.857-15.355-5.857-21.213.001s-5.856 15.356.002 21.213c10.758 10.756 25.059 16.68 40.27 16.68 31.404 0 56.953-25.549 56.953-56.953s-25.548-56.952-56.952-56.952z"/><path d="m15 176.165h248.372c8.284 0 15-6.716 15-15s-6.716-15-15-15h-248.372c-8.284 0-15 6.716-15 15s6.716 15 15 15z"/><path d="m183.487 104.993h136.085c8.284 0 15-6.716 15-15s-6.716-15-15-15h-136.085c-8.284 0-15 6.716-15 15s6.716 15 15 15z"/><path d="m61.325 214.21c-8.284 0-15 6.716-15 15s6.716 15 15 15h17.861c8.284 0 15-6.716 15-15s-6.716-15-15-15z"/></svg>