<svg width="64" height="64" viewBox="0 0 64 64" fill="none" xmlns="http://www.w3.org/2000/svg">
<g clip-path="url(#clip0_5_14)">
<path d="M55.0464 2.5065H8.95362C4.01662 2.5065 0 6.523 0 11.46V41.5205C0 46.4575 4.01662 50.4741 8.95362 50.4741H10.9576C11.4754 50.4741 11.8951 50.0544 11.8951 49.5366C11.8951 49.0189 11.4754 48.5991 10.9576 48.5991H8.95362C5.0505 48.5991 1.875 45.4236 1.875 41.5205V11.46C1.875 7.55688 5.0505 4.38138 8.95362 4.38138H55.0464C58.9495 4.3815 62.125 7.55688 62.125 11.46V41.5205C62.125 45.4236 58.9495 48.5991 55.0464 48.5991H45.2694C44.216 48.5991 43.2256 49.0094 42.4809 49.7541L33.0524 59.1825C32.7713 59.4636 32.3975 59.6185 32 59.6185C31.6025 59.6185 31.2287 59.4636 30.9476 59.1825L21.5193 49.7541C20.7745 49.0094 19.7841 48.5991 18.7307 48.5991H14.9657C14.448 48.5991 14.0282 49.0189 14.0282 49.5366C14.0282 50.0544 14.448 50.4741 14.9657 50.4741H18.7307C19.2832 50.4741 19.8027 50.6893 20.1935 51.08L29.6219 60.5084C30.2571 61.1436 31.1018 61.4935 32.0001 61.4935C32.8985 61.4935 33.7431 61.1436 34.3784 60.5084L43.8068 51.08C44.1974 50.6894 44.7169 50.4741 45.2695 50.4741H55.0465C59.9835 50.4741 64.0001 46.4575 64.0001 41.5205V11.46C64 6.523 59.9834 2.5065 55.0464 2.5065Z" fill="white"/>
<path d="M25.129 15.4008C27.4828 15.4008 29.7307 16.4205 31.2964 18.1985C31.4744 18.4006 31.7308 18.5164 32 18.5164C32.2693 18.5164 32.5257 18.4005 32.7037 18.1985C34.2693 16.4205 36.5173 15.4008 38.871 15.4008C40.4444 15.4008 41.9733 15.8463 43.2924 16.689C43.7287 16.9678 44.3084 16.84 44.5872 16.4038C44.8659 15.9675 44.7383 15.3878 44.3019 15.109C42.6808 14.0731 40.8028 13.5256 38.871 13.5256C36.3153 13.5256 33.8622 14.5029 32 16.236C30.138 14.5029 27.6849 13.5256 25.129 13.5256C19.5605 13.5256 15.0302 18.056 15.0302 23.6245C15.0302 28.1849 17.8374 32.9033 23.3737 37.6488C27.4128 41.1108 31.3899 43.2564 31.5573 43.346C31.8338 43.4941 32.1661 43.4941 32.4426 43.346C32.61 43.2564 36.5872 41.1108 40.6262 37.6488C46.1625 32.9033 48.9697 28.1849 48.9697 23.6245C48.9697 21.8983 48.5263 20.1943 47.6877 18.6965C47.4347 18.2448 46.8634 18.0838 46.4117 18.3366C45.9599 18.5896 45.7988 19.161 46.0518 19.6126C46.7342 20.8311 47.0948 22.2184 47.0948 23.6245C47.0948 32.3189 34.5379 39.9844 32 41.4443C29.462 39.9844 16.9053 32.319 16.9053 23.6245C16.9053 19.09 20.5944 15.4008 25.129 15.4008Z" fill="white"/>
</g>
<defs>
<clipPath id="clip0_5_14">
<rect width="64" height="64" fill="white"/>
</clipPath>
</defs>
</svg>
