<svg width="60" height="60" viewBox="0 0 60 60" fill="none" xmlns="http://www.w3.org/2000/svg">
<path d="M42.3414 38.9355C37.348 35.9415 31.508 34.4235 24.9831 34.4235C21.4055 34.4235 17.7975 34.849 13.9542 35.7244C12.4035 36.0304 11.4411 37.2348 11.4411 38.8729C11.4411 40.5581 12.7661 41.8782 14.4573 41.8782C14.8568 41.8782 15.3054 41.7679 15.7392 41.6609C15.8734 41.6279 16.0063 41.595 16.1197 41.5703C19.2254 40.9243 22.2009 40.5969 24.9636 40.5969C30.3288 40.5969 35.2685 41.8695 39.2446 44.2746C39.7636 44.5912 40.2948 44.8753 41.0849 44.8753C42.7311 44.8753 44.0706 43.5307 44.0705 41.8778C44.0704 40.1728 43.1979 39.4328 42.3414 38.9355ZM41.0849 42.4849C40.9514 42.4849 40.8654 42.4631 40.4855 42.2316C36.1323 39.5982 30.765 38.2064 24.9635 38.2064C22.0375 38.2064 18.8982 38.5507 15.6225 39.2323C15.4782 39.2636 15.3236 39.3015 15.1673 39.34C14.9469 39.3942 14.5782 39.485 14.4573 39.488C13.9982 39.488 13.8316 39.1202 13.8316 38.8731C13.8316 38.2973 14.0589 38.1382 14.4253 38.0682C14.4393 38.0657 14.4532 38.0626 14.4669 38.0596C18.1409 37.2216 21.5809 36.8142 24.9833 36.8142C31.072 36.8142 36.5011 38.2192 41.1192 40.9902C41.1246 40.9936 41.1301 40.9968 41.1355 40.9999C41.5979 41.2676 41.6802 41.3568 41.6802 41.8781C41.6801 42.2579 41.3774 42.4849 41.0849 42.4849Z" fill="white"/>
<path d="M45.76 30.4956C39.8559 26.9654 32.3362 25.021 24.5858 25.021C19.7899 25.021 16.4505 25.6683 12.9041 26.6422C11.2129 27.1195 10.2429 28.4151 10.2429 30.1973C10.2429 32.1018 11.7882 33.6511 13.6876 33.6511C14.2557 33.6511 14.6713 33.5168 15.0379 33.3983C15.1536 33.3608 15.2734 33.3221 15.4027 33.2858C18.3102 32.5157 21.368 32.125 24.491 32.125C30.9475 32.125 37.3916 33.7501 42.1774 36.5873L42.2452 36.6272C42.6936 36.8909 43.3079 37.2518 44.2248 37.2518C46.1216 37.2518 47.6648 35.7049 47.665 33.8035C47.665 32.3182 47.0419 31.2362 45.76 30.4956ZM44.2248 34.861C43.9685 34.861 43.8134 34.776 43.4564 34.5661L43.3902 34.5273C38.1768 31.4366 31.4651 29.7343 24.491 29.7343C21.1584 29.7343 17.8918 30.1526 14.782 30.9775C14.7769 30.9789 14.7717 30.9802 14.7666 30.9817C14.5884 31.0314 14.4366 31.0806 14.3026 31.1238C14.0013 31.2212 13.8716 31.2608 13.6875 31.2608C13.1061 31.2608 12.6332 30.7839 12.6332 30.1976C12.6332 29.4816 12.8911 29.1299 13.545 28.9453C16.8969 28.0247 20.0571 27.4116 24.5856 27.4116C31.9138 27.4116 39.0006 29.237 44.5406 32.5519C44.5465 32.5554 44.5526 32.5589 44.5586 32.5624C45.1139 32.8816 45.2745 33.1601 45.2745 33.8034C45.2746 34.3965 44.8134 34.861 44.2248 34.861Z" fill="white"/>
<path d="M49.6302 20.8418C43.4398 17.2084 34.5268 15.1247 25.175 15.1247C19.9828 15.1247 15.2683 15.7377 11.1609 16.9474C9.39139 17.4714 8.29218 18.9641 8.29218 20.843C8.29218 23.0575 10.009 24.7922 12.2005 24.7922C12.7623 24.7922 13.2588 24.6463 13.6578 24.529C13.7707 24.4961 13.8772 24.4646 13.9628 24.4438C13.9726 24.4414 13.9823 24.4389 13.9922 24.4363C17.2746 23.5461 21.0407 23.0946 25.1857 23.0946C33.026 23.0946 40.8869 24.8866 45.7008 27.7711C45.7142 27.7792 45.728 27.787 45.7417 27.7945C46.4408 28.1768 46.9751 28.3839 47.7958 28.3839C49.9873 28.3839 51.7066 26.6755 51.7099 24.4925C51.7099 22.8585 51.0102 21.63 49.6302 20.8418ZM47.7958 25.9936C47.5079 25.9936 47.3705 25.9596 46.9084 25.7081C41.6657 22.5745 33.5476 20.7042 25.1858 20.7042C20.8351 20.7042 16.8634 21.1825 13.3801 22.1256C13.2462 22.1587 13.113 22.1979 12.9842 22.2356C12.7063 22.3174 12.4187 22.4019 12.2007 22.4019C11.3353 22.4019 10.6828 21.7317 10.6828 20.8431C10.6828 19.8008 11.3121 19.3958 11.8383 19.2401C15.7246 18.0955 20.2118 17.5153 25.1753 17.5153C34.1173 17.5153 42.5921 19.4807 48.4265 22.9071C48.4312 22.9098 48.4359 22.9126 48.4406 22.9152C48.9833 23.224 49.3198 23.5957 49.3198 24.491C49.3182 25.4316 48.5437 25.9936 47.7958 25.9936Z" fill="white"/>
<path d="M51.2118 8.78707C45.5453 3.12176 38.0118 0.00175476 29.9991 0.00175476C21.9857 0.00175476 14.4524 3.12176 8.7866 8.78707C3.12047 14.4527 0 21.9862 0 30C0 38.0127 3.12047 45.5459 8.78637 51.2118C14.4525 56.8778 21.986 59.9981 29.9989 59.9981C38.0114 59.9981 45.5449 56.8777 51.2118 51.2119C56.8789 45.5456 60 38.0123 60 30C60 21.9865 56.8789 14.453 51.2118 8.78707ZM29.9991 57.6077C14.7757 57.6077 2.39039 45.223 2.39039 30C2.39039 14.777 14.7757 2.39226 29.9991 2.39226C45.2235 2.39226 57.6096 14.777 57.6096 30C57.6096 45.223 45.2235 57.6077 29.9991 57.6077Z" fill="white"/>
<path d="M53.8692 37.4836C53.2497 37.2562 52.5629 37.5739 52.3354 38.1936C52.1811 38.6135 52.0129 39.0345 51.835 39.4452C51.5725 40.0508 51.8508 40.7545 52.4565 41.017C52.6114 41.0841 52.7726 41.1158 52.9311 41.1158C53.3931 41.1158 53.833 40.8464 54.0284 40.3955C54.2243 39.9434 54.4097 39.4796 54.5794 39.0173C54.8067 38.3979 54.4889 37.7111 53.8692 37.4836Z" fill="white"/>
<path d="M51.349 43.0294C50.803 42.6585 50.0597 42.8005 49.6887 43.3464C45.2486 49.8815 37.888 53.7831 29.9992 53.7831C29.3391 53.7831 28.804 54.3182 28.804 54.9783C28.804 55.6384 29.3391 56.1735 29.9992 56.1735C38.6805 56.1735 46.7803 51.8804 51.6659 44.6896C52.0369 44.1436 51.895 43.4003 51.349 43.0294Z" fill="white"/>
</svg>
