<svg id="Capa_1" enable-background="new 0 0 512 512" height="512" viewBox="0 0 512 512" width="512" xmlns="http://www.w3.org/2000/svg"><g><g><path d="m306.384 219.541c0-4.19-2.613-7.937-6.546-9.385l-116.862-43.014c-2.23-.82-4.678-.82-6.908 0l-116.863 43.013c-3.933 1.448-6.546 5.194-6.546 9.385v74.305c0 37.197 12.213 73.343 35.32 104.527 21.697 29.284 52.013 52.683 87.667 67.668 2.462 1.034 5.288 1.034 7.75 0 35.656-14.988 65.972-38.387 87.669-67.668 23.105-31.184 35.318-67.329 35.318-104.527v-74.304zm-20 74.304c0 32.88-10.854 64.907-31.388 92.62-18.776 25.339-44.808 45.833-75.475 59.463-30.665-13.628-56.696-34.122-75.473-59.462-20.535-27.715-31.39-59.742-31.39-92.621v-67.329l106.862-39.332 106.862 39.333v67.328z"/><path d="m429.921 162.95c0-50.503-41.087-91.59-91.59-91.59-23.892 0-46.504 9.145-63.67 25.75-13.849 13.396-22.962 30.489-26.386 49.111l-65.299-24.034c-2.23-.82-4.678-.82-6.908 0l-158.809 58.45c-3.933 1.447-6.546 5.194-6.546 9.385v103.442c0 46.42 15.124 91.367 43.736 129.981 28.609 38.611 68.89 68.374 116.488 86.072 2.72 1.011 5.632 2.481 8.584 2.481 2.953 0 5.867-1.472 8.588-2.482 33.207-12.348 62.667-30.414 87.561-53.696 4.033-3.772 4.245-10.101.473-14.135-3.773-4.031-10.101-4.245-14.135-.473-22.949 21.465-50.157 38.138-80.866 49.557-.437.163-1.158.598-1.62.598-.461 0-1.18-.434-1.616-.597-43.956-16.344-81.089-43.741-107.387-79.231-26.041-35.145-39.806-75.975-39.806-118.075v-96.467l148.809-54.77 148.809 54.77v96.467c0 27.609-5.879 54.587-17.475 80.183-2.278 5.03-.048 10.956 4.982 13.235 5.031 2.278 10.957.047 13.236-4.982 12.777-28.206 19.256-57.96 19.256-88.436v-39.463c45.816-4.998 81.591-43.922 81.591-91.051zm-81.59 70.904v-43.834c0-4.19-2.613-7.937-6.546-9.385l-74.388-27.381c2.138-15.861 9.508-30.488 21.169-41.769 13.417-12.978 31.09-20.125 49.765-20.125 39.475 0 71.59 32.115 71.59 71.59 0 36.087-26.831 66.025-61.59 70.904z"/><path d="m338.33 52.328c5.522 0 10-4.478 10-10v-32.328c0-5.522-4.478-10-10-10s-10 4.478-10 10v32.328c0 5.523 4.478 10 10 10z"/><path d="m245.964 84.729c1.953 1.952 4.512 2.929 7.071 2.929s5.118-.977 7.071-2.929c3.905-3.905 3.905-10.237 0-14.143l-22.859-22.859c-3.906-3.904-10.236-3.904-14.143 0-3.905 3.905-3.905 10.237 0 14.143z"/><path d="m430.699 241.179c-3.905-3.903-10.235-3.904-14.143 0-3.905 3.905-3.905 10.237 0 14.143l22.859 22.86c1.953 1.952 4.512 2.929 7.071 2.929s5.118-.977 7.071-2.929c3.905-3.905 3.905-10.237 0-14.143z"/><path d="m423.628 87.658c2.56 0 5.118-.977 7.071-2.929l22.859-22.859c3.905-3.905 3.905-10.237 0-14.143-3.906-3.904-10.236-3.904-14.143 0l-22.859 22.859c-3.905 3.905-3.905 10.237 0 14.143 1.954 1.953 4.512 2.929 7.072 2.929z"/><path d="m491.287 152.955h-32.328c-5.522 0-10 4.478-10 10s4.478 10 10 10h32.328c5.522 0 10-4.478 10-10s-4.477-10-10-10z"/><path d="m137.619 306.873c-3.906-3.904-10.236-3.904-14.143 0-3.905 3.905-3.905 10.237 0 14.143l33.771 33.771c3.854 3.852 10.289 3.852 14.143 0l74.816-74.816c3.905-3.905 3.905-10.237 0-14.143-3.906-3.904-10.236-3.904-14.143 0l-67.745 67.746z"/><path d="m307.7 411.05c-2.095-5.026-8.022-7.502-13.061-5.41-5.035 2.09-7.49 8.024-5.41 13.061 2.079 5.034 8.031 7.497 13.061 5.409 5.049-2.096 7.478-8.013 5.41-13.06z"/></g></g></svg>